<svg width="160" height="63" viewBox="0 0 160 63" fill="none" xmlns="http://www.w3.org/2000/svg">
<path d="M9.19343 53.72C7.54553 53.72 6.09859 53.4286 4.85262 52.8458C3.62674 52.2429 2.67217 51.3587 1.98889 50.1931C1.30562 49.0275 0.963981 47.6007 0.963981 45.9126C0.963981 44.3451 1.30562 42.9785 1.98889 41.8129C2.67217 40.6473 3.6167 39.743 4.82248 39.0999C6.04835 38.4367 7.47519 38.1051 9.10299 38.1051C10.6906 38.1051 12.0773 38.3865 13.2629 38.9492C14.4486 39.4918 15.373 40.3057 16.0362 41.3909C16.6994 42.456 17.031 43.7522 17.031 45.2795C17.031 45.5408 17.0209 45.7819 17.0009 46.003C16.9808 46.2241 16.9506 46.4552 16.9104 46.6963H3.25496V44.7369H14.4989L13.6247 45.9427C13.6247 45.7418 13.6247 45.5508 13.6247 45.37C13.6448 45.169 13.6548 44.968 13.6548 44.7671C13.6548 43.4608 13.273 42.4962 12.5093 41.8732C11.7457 41.2301 10.5901 40.9086 9.0427 40.9086C7.31442 40.9086 6.08854 41.3005 5.36508 42.0842C4.64161 42.8479 4.27988 43.9632 4.27988 45.4303V46.3044C4.27988 47.8117 4.64161 48.9471 5.36508 49.7108C6.08854 50.4744 7.32447 50.8563 9.07285 50.8563C10.5801 50.8563 11.6653 50.6352 12.3285 50.1931C12.9916 49.7309 13.3232 49.0878 13.3232 48.2638V47.9925H16.8501V48.2638C16.8501 49.349 16.5286 50.3036 15.8855 51.1276C15.2424 51.9314 14.3381 52.5645 13.1725 53.0267C12.027 53.4889 10.7007 53.72 9.19343 53.72Z" fill="#FD5E09"/>
<path d="M28.4503 53.4185H23.6574L18.3218 33.2217H21.9391L25.2249 46.003L26.1292 50.2835H26.3704L27.4556 46.003L31.5251 33.2217H36.2578L40.5986 46.003L41.7441 50.2835H41.9852L42.8293 46.003L45.8437 33.2217H49.4008L44.3365 53.4185H39.5435L35.474 41.6622L33.9969 36.4773H33.7256L32.2787 41.6622L28.4503 53.4185ZM58.9745 53.72C54.0006 53.72 50.6546 50.5548 50.6546 45.9427C50.6546 41.2703 54.0006 38.1353 58.9745 38.1353C63.9785 38.1353 67.3245 41.2703 67.3245 45.9427C67.3245 50.5548 63.9785 53.72 58.9745 53.72ZM58.9745 50.8261C62.6219 50.8261 64.1292 49.1079 64.1292 45.9427C64.1292 42.7474 62.6219 40.999 58.9745 40.999C55.3571 40.999 53.8499 42.7474 53.8499 45.9427C53.8499 49.1079 55.3571 50.8261 58.9745 50.8261ZM72.9427 53.4185H69.6871V38.4367H72.6714V42.4761H72.8824C73.3345 40.0645 74.9624 38.1353 78.0371 38.1353C81.4434 38.1353 82.9205 40.577 82.9205 43.4106V45.37H79.695V44.0436C79.695 41.9034 78.7907 40.9086 76.56 40.9086C73.9977 40.9086 72.9427 42.3254 72.9427 45.0082V53.4185ZM118.642 53.72C113.729 53.72 110.503 50.9467 110.503 45.9427C110.503 41.2703 113.699 38.1353 118.582 38.1353C123.224 38.1353 126.39 40.6976 126.39 45.2494C126.39 45.792 126.359 46.214 126.269 46.6662H113.548C113.669 49.5601 115.085 51.0974 118.552 51.0974C121.687 51.0974 122.983 50.0725 122.983 48.294V48.0528H126.239V48.3241C126.239 51.5194 123.104 53.72 118.642 53.72ZM118.522 40.6976C115.206 40.6976 113.759 42.1747 113.578 44.8575H123.315V44.7972C123.315 42.0239 121.717 40.6976 118.522 40.6976ZM132.084 53.4185H128.828V38.4367H131.812V42.4761H132.023C132.475 40.0645 134.103 38.1353 137.178 38.1353C140.584 38.1353 142.061 40.577 142.061 43.4106V45.37H138.836V44.0436C138.836 41.9034 137.932 40.9086 135.701 40.9086C133.139 40.9086 132.084 42.3254 132.084 45.0082V53.4185ZM151.19 53.72C146.367 53.72 143.624 51.8209 143.624 48.3543V48.2638H146.88V48.505C146.88 50.4644 148.055 51.0974 151.19 51.0974C154.114 51.0974 154.988 50.4945 154.988 49.1682C154.988 47.9323 154.265 47.5404 152.125 47.2389L148.025 46.6963C145.191 46.3346 143.473 45.1288 143.473 42.6268C143.473 40.0042 145.855 38.1353 150.467 38.1353C155.049 38.1353 157.822 39.9741 157.822 43.5312V43.6216H154.597V43.4407C154.597 41.6622 153.692 40.7277 150.376 40.7277C147.633 40.7277 146.669 41.3306 146.669 42.7474C146.669 43.923 147.271 44.3451 149.532 44.6465L152.999 45.1288C156.556 45.581 158.184 46.7868 158.184 49.2586C158.184 52.062 155.41 53.72 151.19 53.72Z" fill="#ECECEC"/>
<path d="M105.831 53.4185C105.733 52.3195 105.463 51.3285 105.021 50.4453C104.58 49.5524 104.011 48.7624 103.314 48.0756C102.627 47.3887 101.837 46.7999 100.944 46.3093C100.051 45.8088 99.1044 45.3967 98.1035 45.0729C97.1027 44.7491 96.0674 44.5136 94.9978 44.3664C93.9283 44.2094 92.8734 44.1309 91.8333 44.1309H88.6981V53.4185H86.8582V33.1947H88.6981V42.5118H91.3328C92.3828 42.5118 93.4278 42.4186 94.468 42.2321C95.5081 42.0359 96.4992 41.7562 97.4412 41.3931C98.393 41.0203 99.2762 40.5689 100.091 40.039C100.915 39.4993 101.641 38.886 102.269 38.1991C102.897 37.5024 103.412 36.737 103.815 35.903C104.217 35.0689 104.467 34.1661 104.565 33.1947H106.464C106.366 34.2642 106.125 35.2357 105.743 36.109C105.37 36.9725 104.909 37.7526 104.359 38.4493C103.81 39.146 103.196 39.7593 102.519 40.2892C101.842 40.8093 101.155 41.2607 100.459 41.6434C99.7619 42.0162 99.0799 42.3302 98.4126 42.5854C97.7454 42.8307 97.1419 43.0171 96.6022 43.1447C97.2793 43.2526 98.0103 43.4194 98.7953 43.6451C99.5902 43.861 100.38 44.1554 101.165 44.5283C101.96 44.8913 102.73 45.3427 103.476 45.8824C104.222 46.4123 104.889 47.0403 105.478 47.7665C106.076 48.4926 106.577 49.3218 106.979 50.254C107.381 51.1862 107.632 52.241 107.73 53.4185H105.831Z" fill="#B3A0CF"/>
<path d="M11.1968 28.9638C5.25837 28.9638 1.30944 24.8641 1.30944 18.5639C1.30944 12.2637 5.55981 8.1641 12.0107 8.1641C17.7382 8.1641 21.7173 11.058 21.7173 15.7304V15.9715H18.1301V15.7304C18.1301 12.8365 16.1104 11.269 11.9203 11.269C7.06704 11.269 4.74591 13.5298 4.74591 18.5639C4.74591 23.5981 7.03689 25.8288 11.7696 25.8288C16.5927 25.8288 18.4918 24.5024 18.4918 21.0961V20.8248H11.016V18.3529H21.7173V28.6624H18.7631V24.2914H18.5521C17.708 27.2456 15.1458 28.9638 11.1968 28.9638ZM32.1185 28.9638C27.1447 28.9638 23.7986 25.7986 23.7986 21.1865C23.7986 16.5141 27.1447 13.3791 32.1185 13.3791C37.1225 13.3791 40.4685 16.5141 40.4685 21.1865C40.4685 25.7986 37.1225 28.9638 32.1185 28.9638ZM32.1185 26.0699C35.766 26.0699 37.2732 24.3517 37.2732 21.1865C37.2732 17.9912 35.766 16.2428 32.1185 16.2428C28.5012 16.2428 26.994 17.9912 26.994 21.1865C26.994 24.3517 28.5012 26.0699 32.1185 26.0699ZM67.8021 28.9638C63.0694 28.9638 60.4468 25.7986 60.4468 21.1865C60.4468 16.5141 63.0392 13.3791 67.5911 13.3791C71.1481 13.3791 73.1678 15.2179 73.7707 17.75H73.9515V8.46554H77.2071V28.6624H74.2228V24.3517H74.0118C73.3788 27.336 71.1782 28.9638 67.8021 28.9638ZM63.7326 21.1865C63.7326 24.7737 65.5714 25.9795 68.7968 25.9795C71.9921 25.9795 73.9515 24.4723 73.9515 21.3372V21.0961C73.9515 17.9008 72.0826 16.3333 68.7365 16.3333C65.6015 16.3333 63.7326 17.5692 63.7326 21.1865Z" fill="#ECECEC"/>
<path d="M50.1492 9.50216C50.1881 9.25419 50.5452 9.25419 50.584 9.50216L51.5916 15.934C51.6212 16.1226 51.8604 16.1867 51.9802 16.0381L56.0688 10.9718C56.2264 10.7765 56.5356 10.955 56.4453 11.1892L54.102 17.2631C54.0333 17.4412 54.2084 17.6163 54.3865 17.5476L60.4604 15.2043C60.6946 15.114 60.8731 15.4232 60.6778 15.5808L55.6115 19.6693C55.4629 19.7892 55.527 20.0284 55.7156 20.058L62.1474 21.0656C62.3954 21.1044 62.3954 21.4615 62.1474 21.5003L55.7156 22.5079C55.527 22.5375 55.4629 22.7767 55.6115 22.8965L60.6778 26.9851C60.8731 27.1427 60.6946 27.4519 60.4604 27.3616L54.3865 25.0183C54.2084 24.9496 54.0333 25.1247 54.102 25.3028L56.4453 31.3767C56.5356 31.6109 56.2264 31.7894 56.0688 31.5941L51.9802 26.5278C51.8604 26.3792 51.6212 26.4433 51.5916 26.6319L50.584 33.0637C50.5452 33.3117 50.1881 33.3117 50.1492 33.0637L49.1416 26.6319C49.1121 26.4433 48.8729 26.3792 48.753 26.5278L44.6645 31.5941C44.5069 31.7894 44.1976 31.6109 44.288 31.3767L46.6313 25.3028C46.7 25.1247 46.5249 24.9496 46.3468 25.0183L40.2729 27.3616C40.0387 27.4519 39.8602 27.1427 40.0555 26.9851L45.1218 22.8965C45.2703 22.7767 45.2062 22.5375 45.0177 22.5079L38.5858 21.5003C38.3379 21.4615 38.3379 21.1044 38.5858 21.0656L45.0177 20.058C45.2062 20.0284 45.2703 19.7892 45.1218 19.6693L40.0555 15.5808C39.8602 15.4232 40.0387 15.114 40.2729 15.2043L46.3468 17.5476C46.5249 17.6163 46.7 17.4412 46.6313 17.2631L44.288 11.1892C44.1976 10.955 44.5069 10.7765 44.6645 10.9718L48.753 16.0381C48.8729 16.1867 49.1121 16.1226 49.1416 15.934L50.1492 9.50216Z" fill="#FDC959"/>
</svg>
