<svg width="23" height="23" viewBox="0 0 23 23" fill="none" xmlns="http://www.w3.org/2000/svg">
<path fill-rule="evenodd" clip-rule="evenodd" d="M22.7217 6.30456C22.7217 4.2696 21.0721 2.62 19.0371 2.62H4.29883C2.26386 2.62 0.614258 4.2696 0.614258 6.30456V18.9374C0.614258 20.9723 2.26386 22.6219 4.29883 22.6219H19.0371C21.0721 22.6219 22.7217 20.9723 22.7217 18.9374V6.30456ZM21.6689 6.30456C21.6689 4.85071 20.4909 3.67273 19.0371 3.67273H4.29883C2.84497 3.67273 1.66699 4.85071 1.66699 6.30456V18.9374C1.66699 20.3912 2.84497 21.5692 4.29883 21.5692H19.0371C20.4909 21.5692 21.6689 20.3912 21.6689 18.9374V6.30456Z" fill="#F8F8F8"/>
<path fill-rule="evenodd" clip-rule="evenodd" d="M5.87988 1.04122V5.25283C5.87988 5.54332 6.11585 5.77929 6.40633 5.77929C6.69682 5.77929 6.93279 5.54332 6.93279 5.25283V1.04122C6.93279 0.750735 6.69682 0.514771 6.40633 0.514771C6.11585 0.514771 5.87988 0.750735 5.87988 1.04122Z" fill="#F8F8F8"/>
<path fill-rule="evenodd" clip-rule="evenodd" d="M1.13867 9.9895H22.1933V8.93677H1.13867V9.9895Z" fill="#F8F8F8"/>
<path fill-rule="evenodd" clip-rule="evenodd" d="M16.4033 1.04122V5.25283C16.4033 5.54332 16.6393 5.77929 16.9298 5.77929C17.2203 5.77929 17.4562 5.54332 17.4562 5.25283V1.04122C17.4562 0.750735 17.2203 0.514771 16.9298 0.514771C16.6393 0.514771 16.4033 0.750735 16.4033 1.04122Z" fill="#F8F8F8"/>
<path fill-rule="evenodd" clip-rule="evenodd" d="M5.87759 12.0948C5.29612 12.0948 4.82422 12.5667 4.82422 13.1482C4.82422 13.7297 5.29612 14.2016 5.87759 14.2016C6.45906 14.2016 6.93095 13.7297 6.93095 13.1482C6.93095 12.5667 6.45906 12.0948 5.87759 12.0948Z" fill="#F8F8F8"/>
<path fill-rule="evenodd" clip-rule="evenodd" d="M11.6666 12.0948C11.0852 12.0948 10.6133 12.5667 10.6133 13.1482C10.6133 13.7297 11.0852 14.2016 11.6666 14.2016C12.2481 14.2016 12.72 13.7297 12.72 13.1482C12.72 12.5667 12.2481 12.0948 11.6666 12.0948Z" fill="#F8F8F8"/>
<path fill-rule="evenodd" clip-rule="evenodd" d="M17.4567 12.0948C16.8752 12.0948 16.4033 12.5667 16.4033 13.1482C16.4033 13.7297 16.8752 14.2016 17.4567 14.2016C18.0382 14.2016 18.5101 13.7297 18.5101 13.1482C18.5101 12.5667 18.0382 12.0948 17.4567 12.0948Z" fill="#F8F8F8"/>
<path fill-rule="evenodd" clip-rule="evenodd" d="M17.4567 17.2767C16.8752 17.2767 16.4033 17.7486 16.4033 18.3301C16.4033 18.9116 16.8752 19.3835 17.4567 19.3835C18.0382 19.3835 18.5101 18.9116 18.5101 18.3301C18.5101 17.7486 18.0382 17.2767 17.4567 17.2767Z" fill="#F8F8F8"/>
<path fill-rule="evenodd" clip-rule="evenodd" d="M11.6666 17.2767C11.0852 17.2767 10.6133 17.7486 10.6133 18.3301C10.6133 18.9116 11.0852 19.3835 11.6666 19.3835C12.2481 19.3835 12.72 18.9116 12.72 18.3301C12.72 17.7486 12.2481 17.2767 11.6666 17.2767Z" fill="#F8F8F8"/>
<path fill-rule="evenodd" clip-rule="evenodd" d="M5.87759 17.2767C5.29612 17.2767 4.82422 17.7486 4.82422 18.3301C4.82422 18.9116 5.29612 19.3835 5.87759 19.3835C6.45906 19.3835 6.93095 18.9116 6.93095 18.3301C6.93095 17.7486 6.45906 17.2767 5.87759 17.2767Z" fill="#F8F8F8"/>
</svg>
