<svg width="19" height="15" viewBox="0 0 19 15" fill="none" xmlns="http://www.w3.org/2000/svg">
<path fill-rule="evenodd" clip-rule="evenodd" d="M0.509903 2.51696C0.509903 1.31344 1.48458 0.338715 2.68815 0.338715H16.3335C16.9113 0.338715 17.4651 0.568515 17.874 0.976479C18.2819 1.38538 18.5117 1.9391 18.5117 2.51696V9.3046C18.5117 9.88246 18.2819 10.4362 17.874 10.8451C17.4651 11.253 16.9113 11.4828 16.3335 11.4828H5.08687C4.73978 11.4828 4.40703 11.6208 4.16289 11.8661C3.20791 12.8202 1.24245 14.7865 1.24245 14.7865C1.1198 14.9092 0.934776 14.9452 0.775192 14.8792C0.614849 14.8131 0.510378 14.6562 0.510378 14.4831L0.509903 2.51696ZM1.36711 13.4481V2.51696C1.36711 1.78755 1.95854 1.19593 2.68815 1.19593H16.3335C16.684 1.19593 17.02 1.33484 17.2678 1.58243C17.5156 1.83022 17.6543 2.16622 17.6543 2.51674V9.30438C17.6543 9.65492 17.5154 9.99093 17.2678 10.2387C17.02 10.4865 16.684 10.6252 16.3335 10.6252H5.08687C4.51244 10.6252 3.96216 10.8533 3.55594 11.2588L1.36711 13.4481Z" fill="#111111"/>
</svg>
