<svg width="19" height="19" viewBox="0 0 19 19" fill="none" xmlns="http://www.w3.org/2000/svg">
<path fill-rule="evenodd" clip-rule="evenodd" d="M9.73515 8.81712H9.3115C8.59155 8.77488 7.74455 8.52051 7.74455 7.50428C7.74455 6.61473 8.42225 5.85254 9.3115 5.76776H9.69261C10.6244 5.85255 11.2596 6.44547 11.2596 7.29244C11.2596 7.58905 11.5136 7.84311 11.8102 7.84311C12.1068 7.84311 12.3609 7.58904 12.3609 7.29244C12.3609 5.9796 11.4292 4.96299 10.074 4.75116V3.90419C10.074 3.60758 9.81997 3.35352 9.52336 3.35352C9.22676 3.35352 8.97269 3.60758 8.97269 3.90419V4.75116C7.65985 5.00522 6.68582 6.14878 6.68582 7.5039C6.68582 8.90153 7.65985 9.79077 9.26931 9.87555H9.69295C10.4129 9.9178 11.2599 10.1722 11.2599 11.1884C11.2599 12.0779 10.5822 12.8401 9.69295 12.9249H9.31185C8.3801 12.8401 7.7449 12.2472 7.7449 11.4002C7.7449 11.1036 7.49083 10.8496 7.19422 10.8496C6.89762 10.8496 6.64355 11.1036 6.64355 11.4002C6.64355 12.7131 7.5753 13.7297 8.93043 13.9415V14.7885C8.93043 15.0851 9.18449 15.3392 9.48109 15.3392C9.7777 15.3392 10.0318 15.0851 10.0318 14.7885V13.9415C11.3446 13.6875 12.3186 12.5439 12.3186 11.1888C12.2764 9.79115 11.3021 8.9016 9.73515 8.81712Z" fill="#111111"/>
<path fill-rule="evenodd" clip-rule="evenodd" d="M9.48254 18.6428C4.35776 18.6428 0.165039 14.4499 0.165039 9.32531C0.165039 4.20053 4.35799 0.0078125 9.48254 0.0078125C14.6073 0.0078125 18.8 4.20076 18.8 9.32531C18.8 14.4501 14.6073 18.6428 9.48254 18.6428ZM9.48254 1.27838C5.03547 1.27838 1.43561 4.87847 1.43561 9.32531C1.43561 13.7724 5.0357 17.3722 9.48254 17.3722C13.9296 17.3722 17.5295 13.7721 17.5295 9.32531C17.5295 4.87825 13.9297 1.27838 9.48254 1.27838Z" fill="#111111"/>
</svg>
