<svg width="65" height="64" viewBox="0 0 65 64" fill="none" xmlns="http://www.w3.org/2000/svg">
<path d="M9.83846 54.7655C3.787 48.7141 0.617188 40.6455 0.617188 32.865L32.0271 63.9868C23.9585 63.6987 15.8899 60.817 9.83846 54.7655ZM39.2313 63.1223L1.48168 25.3727C4.65149 11.2527 17.3307 0.590576 32.3153 0.590576C42.9774 0.590576 52.1987 5.77754 57.962 13.558L53.6395 17.3041C48.7407 10.6763 40.9603 6.35387 32.3153 6.35387C21.0769 6.35387 11.5674 13.558 7.82131 23.6438L40.9603 56.7827C49.317 53.9011 55.6567 46.6969 57.6738 38.052H43.8419V32.2887H64.0134C64.0134 47.2733 53.3513 59.9525 39.2313 63.1223Z" fill="white"/>
</svg>
