<svg width="16" height="18" viewBox="0 0 16 18" fill="none" xmlns="http://www.w3.org/2000/svg">
<path fill-rule="evenodd" clip-rule="evenodd" d="M15.9719 5.03241C15.9719 4.19317 15.4825 3.43202 14.7196 3.08301C13.1818 2.38 10.2759 1.05132 8.93368 0.437708C8.36787 0.179781 7.71811 0.179781 7.1525 0.437708C5.81005 1.05152 2.90416 2.3802 1.36657 3.08301C0.6037 3.43183 0.114258 4.19317 0.114258 5.03241V13.1157C0.114258 13.9549 0.60371 14.716 1.36657 15.0651C2.9044 15.7681 5.8103 17.0967 7.1525 17.7104C7.7183 17.9683 8.36807 17.9683 8.93368 17.7104C10.2761 17.0965 13.182 15.7679 14.7196 15.0651C15.4825 14.7162 15.9719 13.9549 15.9719 13.1157V5.03241ZM15.1147 5.03241C15.1147 4.5292 14.8216 4.07223 14.3639 3.86312C12.8251 3.15938 9.92016 1.83143 8.57796 1.21782C8.23852 1.06264 7.84762 1.06264 7.50817 1.21782C6.16572 1.83163 3.26076 3.15938 1.72224 3.86312C1.26455 4.07226 0.971419 4.5292 0.971419 5.03241V13.1157C0.971419 13.6189 1.26456 14.0758 1.72224 14.2849C3.261 14.9887 6.16597 16.3166 7.50817 16.9302C7.84761 17.0854 8.23851 17.0854 8.57796 16.9302C9.92041 16.3164 12.8254 14.9887 14.3639 14.2849C14.8216 14.0758 15.1147 13.6189 15.1147 13.1157V5.03241Z" fill="#111111"/>
<path fill-rule="evenodd" clip-rule="evenodd" d="M8.04321 6.07385C6.38712 6.07385 5.04297 7.41801 5.04297 9.07409C5.04297 10.7302 6.38712 12.0743 8.04321 12.0743C9.69929 12.0743 11.0434 10.7302 11.0434 9.07409C11.0434 7.41801 9.69929 6.07385 8.04321 6.07385ZM8.04321 6.93106C9.22606 6.93106 10.1862 7.89124 10.1862 9.07409C10.1862 10.2569 9.22606 11.2171 8.04321 11.2171C6.86035 11.2171 5.90018 10.2569 5.90018 9.07409C5.90018 7.89124 6.86035 6.93106 8.04321 6.93106Z" fill="#111111"/>
</svg>
