<svg width="19" height="19" viewBox="0 0 19 19" fill="none" xmlns="http://www.w3.org/2000/svg">
<path fill-rule="evenodd" clip-rule="evenodd" d="M9.47152 0.771088C4.7406 0.771088 0.899414 4.61227 0.899414 9.34319C0.899414 14.0741 4.7406 17.9153 9.47152 17.9153C14.2024 17.9153 18.0436 14.0741 18.0436 9.34319C18.0436 4.61227 14.2024 0.771088 9.47152 0.771088ZM9.47152 1.6283C13.7293 1.6283 17.1864 5.08545 17.1864 9.34319C17.1864 13.6009 13.7293 17.0581 9.47152 17.0581C5.21378 17.0581 1.75662 13.6009 1.75662 9.34319C1.75662 5.08545 5.21378 1.6283 9.47152 1.6283Z" fill="#111111"/>
<path fill-rule="evenodd" clip-rule="evenodd" d="M15.1456 15.1276L18.1476 18.6232C18.301 18.8023 18.572 18.823 18.7518 18.6686C18.9309 18.5151 18.9516 18.2442 18.7972 18.0643L15.7952 14.5687C15.641 14.3896 15.3708 14.369 15.191 14.5234C15.0119 14.6776 14.9912 14.9485 15.1456 15.1276Z" fill="#111111"/>
</svg>
