<svg width="24" height="20" viewBox="0 0 24 20" fill="none" xmlns="http://www.w3.org/2000/svg">
<path fill-rule="evenodd" clip-rule="evenodd" d="M14.9491 3.58126C14.7458 3.66862 14.6143 3.86876 14.6143 4.08987V18.4623C14.6143 18.6482 14.7071 18.8217 14.863 18.9233C15.0177 19.0262 15.2134 19.0438 15.385 18.971C15.385 18.971 19.6106 17.1588 21.8175 16.2137C22.8135 15.787 23.4593 14.8072 23.4593 13.7239V4.04349C23.4593 3.13237 23.0015 2.28348 22.2422 1.78149C21.4816 1.28077 20.5196 1.19439 19.6828 1.55371C17.5082 2.4858 14.9498 3.58127 14.9498 3.58127L14.9491 3.58126ZM15.7198 17.6246L21.3814 15.1978C21.9707 14.9446 22.3533 14.3653 22.3533 13.724V4.04358C22.3533 3.50412 22.0823 3.00093 21.6324 2.70482C21.1826 2.40844 20.613 2.3576 20.1177 2.56984L15.7198 4.45475V17.6246Z" fill="#111111"/>
<path fill-rule="evenodd" clip-rule="evenodd" d="M8.54564 0.219971H8.5523L8.58092 0.222192C8.59203 0.222192 8.6019 0.224413 8.61301 0.2254L8.64065 0.229842L8.64953 0.232063L8.66952 0.236505L8.68383 0.239713L8.69938 0.244155L8.71715 0.250818L8.72702 0.254026L8.75022 0.26291L8.75244 0.263898C8.76231 0.26834 8.77341 0.272782 8.78328 0.278211L15.4167 3.59493C15.4266 3.60036 15.4377 3.60604 15.4476 3.61147L15.4653 3.62257L15.4841 3.63467C15.494 3.64232 15.5041 3.64898 15.514 3.65688L15.5317 3.67242L15.5451 3.68353C15.5628 3.70006 15.5794 3.71783 15.5937 3.7356L15.6058 3.75115L15.6191 3.76891C15.6258 3.7778 15.6324 3.78767 15.6378 3.79754L15.6499 3.81753L15.6576 3.83184L15.663 3.84073L15.6741 3.86614L15.684 3.88934L15.6884 3.90045L15.6929 3.91476L15.7005 3.93697L15.7072 3.9656L15.7094 3.97448L15.7126 3.99225L15.7158 4.01224V4.01545C15.7181 4.02655 15.719 4.03766 15.7203 4.04753L15.7213 4.07196V18.4621C15.7213 18.6534 15.6218 18.8313 15.4592 18.932C15.2956 19.0327 15.0922 19.0425 14.9207 18.9564L8.51722 15.7547L4.01968 17.6818C3.18286 18.0411 2.22088 17.955 1.46031 17.454C0.700745 16.9521 0.243164 16.1029 0.243164 15.192V5.51159C0.243164 4.42825 0.888756 3.44852 1.88497 3.02183C4.0917 2.07666 8.31752 0.264532 8.31752 0.264532L8.33973 0.255649L8.3464 0.253428L8.37403 0.244544C8.38514 0.241336 8.39501 0.23788 8.40612 0.23566L8.43277 0.23023L8.44165 0.228009L8.46263 0.224801L8.47596 0.223814L8.49249 0.222827L8.51124 0.22184L8.52235 0.220853H8.54555L8.54564 0.219971ZM9.08856 14.8034L14.6164 17.5674V4.43126L9.08856 1.66733V14.8034ZM7.98298 1.61047L2.32136 4.0373C1.73205 4.29049 1.34953 4.8697 1.34953 5.51106V15.1915C1.34953 15.7309 1.6205 16.2341 2.07037 16.5302C2.52025 16.8266 3.08983 16.8774 3.58513 16.6652L7.98298 14.7803V1.61047Z" fill="#111111"/>
</svg>
