<svg width="157" height="20" viewBox="0 0 157 20" fill="none" xmlns="http://www.w3.org/2000/svg">
<path d="M56.5795 3.32011H58.4596V0.140033C57.5493 0.045378 56.6347 -0.00135431 55.7195 2.98648e-05C52.9994 2.98648e-05 51.1394 1.66007 51.1394 4.70014V7.3202H48.0693V10.8803H51.1394V20.0005H54.8195V10.8803H57.8796L58.3396 7.3202H54.8195V5.05015C54.8195 4.00012 55.0995 3.32011 56.5795 3.32011Z" fill="#F8F8F8"/>
<path d="M104.832 0.000139831H87.8919C87.7015 -0.00250479 87.5124 0.0323873 87.3354 0.102824C87.1585 0.17326 86.9972 0.27786 86.8607 0.410652C86.7242 0.543443 86.6152 0.701824 86.5399 0.876749C86.4646 1.05167 86.4245 1.23972 86.4219 1.43014V18.5701C86.4245 18.7606 86.4646 18.9486 86.5399 19.1235C86.6152 19.2985 86.7242 19.4568 86.8607 19.5896C86.9972 19.7224 87.1585 19.827 87.3354 19.8975C87.5124 19.9679 87.7015 20.0028 87.8919 20.0001H104.832C105.022 20.0028 105.211 19.9679 105.388 19.8975C105.565 19.827 105.727 19.7224 105.863 19.5896C106 19.4568 106.109 19.2985 106.184 19.1235C106.259 18.9486 106.299 18.7606 106.302 18.5701V1.43014C106.299 1.23972 106.259 1.05167 106.184 0.876749C106.109 0.701824 106 0.543443 105.863 0.410652C105.727 0.27786 105.565 0.17326 105.388 0.102824C105.211 0.0323873 105.022 -0.00250479 104.832 0.000139831ZM92.4519 16.7401H89.4519V7.74014H92.4519V16.7401ZM90.9519 6.48014C90.5381 6.48014 90.1413 6.31578 89.8488 6.02323C89.5562 5.73067 89.3919 5.33388 89.3919 4.92014C89.3919 4.5064 89.5562 4.10961 89.8488 3.81705C90.1413 3.5245 90.5381 3.36014 90.9519 3.36014C91.1716 3.33522 91.3941 3.35699 91.6048 3.42402C91.8154 3.49105 92.0096 3.60183 92.1745 3.7491C92.3394 3.89637 92.4714 4.07682 92.5617 4.27862C92.6521 4.48043 92.6988 4.69904 92.6988 4.92014C92.6988 5.14124 92.6521 5.35985 92.5617 5.56166C92.4714 5.76346 92.3394 5.94391 92.1745 6.09118C92.0096 6.23845 91.8154 6.34923 91.6048 6.41626C91.3941 6.48329 91.1716 6.50505 90.9519 6.48014ZM103.272 16.7401H100.272V11.9101C100.272 10.7001 99.8419 9.91014 98.7519 9.91014C98.4145 9.91261 98.0861 10.0184 97.8107 10.2133C97.5354 10.4082 97.3264 10.6828 97.2119 11.0001C97.1336 11.2352 97.0997 11.4827 97.1119 11.7301V16.7301H94.1119C94.1119 16.7301 94.1119 8.55014 94.1119 7.73014H97.1119V9.00014C97.3844 8.52725 97.7808 8.13766 98.2583 7.87334C98.7358 7.60902 99.2764 7.47999 99.8219 7.50014C101.822 7.50014 103.272 8.79014 103.272 11.5601V16.7401Z" fill="#F8F8F8"/>
<path d="M151.763 0H155.158L147.704 8.48729L156.413 20.0005H149.579L144.228 13.004L138.102 20.0005H134.707L142.604 10.9228L134.265 0H141.269L146.103 6.3913L151.763 0ZM150.575 18.0078H152.457L140.28 1.91887H138.257L150.575 18.0078Z" fill="#F8F8F8"/>
<path fill-rule="evenodd" clip-rule="evenodd" d="M5.77141 1.86175C3.61216 1.86175 1.86175 3.61216 1.86175 5.77141V14.2291C1.86175 16.3883 3.61216 18.1387 5.77141 18.1387H14.3355C16.4947 18.1387 18.2451 16.3883 18.2451 14.2291V5.77141C18.2451 3.61216 16.4947 1.86175 14.3355 1.86175H5.77141ZM0 5.77141C0 2.58395 2.58395 0 5.77141 0H14.3355C17.5229 0 20.1069 2.58395 20.1069 5.77141V14.2291C20.1069 17.4165 17.5229 20.0005 14.3355 20.0005H5.77141C2.58395 20.0005 0 17.4165 0 14.2291V5.77141Z" fill="#F8F8F8"/>
<path fill-rule="evenodd" clip-rule="evenodd" d="M4.78711 10.0803C4.78711 7.1572 7.15675 4.7876 10.0798 4.7876C13.0029 4.7876 15.3725 7.1572 15.3725 10.0803C15.3725 13.0033 13.0029 15.373 10.0798 15.373C7.15674 15.373 4.78711 13.0033 4.78711 10.0803ZM10.0798 6.64934C8.18495 6.64934 6.64886 8.18543 6.64886 10.0803C6.64886 11.9751 8.18495 13.5112 10.0798 13.5112C11.9746 13.5112 13.5107 11.9751 13.5107 10.0803C13.5107 8.18542 11.9746 6.64934 10.0798 6.64934Z" fill="#F8F8F8"/>
<path fill-rule="evenodd" clip-rule="evenodd" d="M15.426 5.9307C16.1311 5.9307 16.7027 5.35913 16.7027 4.65407C16.7027 3.94901 16.1311 3.37744 15.426 3.37744C14.721 3.37744 14.1494 3.94901 14.1494 4.65407C14.1494 5.35913 14.721 5.9307 15.426 5.9307Z" fill="#F8F8F8"/>
</svg>
