<svg width="19" height="19" viewBox="0 0 19 19" fill="none" xmlns="http://www.w3.org/2000/svg">
<path fill-rule="evenodd" clip-rule="evenodd" d="M9.65013 0.342377C4.68271 0.342377 0.649414 4.37548 0.649414 9.34309C0.649414 14.3107 4.68252 18.3438 9.65013 18.3438C14.6177 18.3438 18.6508 14.3107 18.6508 9.34309C18.6508 4.37548 14.6177 0.342377 9.65013 0.342377ZM9.65013 1.19959C14.1446 1.19959 17.7936 4.84866 17.7936 9.34309C17.7936 13.8375 14.1446 17.4866 9.65013 17.4866C5.1557 17.4866 1.50662 13.8375 1.50662 9.34309C1.50662 4.84866 5.1557 1.19959 9.65013 1.19959Z" fill="#221E1F"/>
<path fill-rule="evenodd" clip-rule="evenodd" d="M9.65063 0.342377C9.10627 0.342377 8.5508 0.731565 8.09829 1.51416C7.24872 2.98175 6.65039 5.93644 6.65039 9.34319C6.65039 12.7499 7.24872 15.7047 8.09829 17.1722C8.55082 17.9548 9.10627 18.344 9.65063 18.344C10.195 18.344 10.7505 17.9548 11.203 17.1722C12.0525 15.7046 12.6509 12.7499 12.6509 9.34319C12.6509 5.93644 12.0525 2.9817 11.203 1.51416C10.7504 0.73155 10.195 0.342377 9.65063 0.342377ZM9.65063 1.19959C9.828 1.19959 9.9849 1.31784 10.1443 1.4954C10.3731 1.74912 10.5815 2.12205 10.7726 2.58832C11.3959 4.11161 11.7937 6.57185 11.7937 9.34314C11.7937 12.1145 11.3959 14.5746 10.7726 16.098C10.5815 16.5643 10.3731 16.9372 10.1443 17.1909C9.9849 17.3683 9.828 17.4867 9.65063 17.4867C9.47326 17.4867 9.31635 17.3684 9.15697 17.1909C8.92813 16.9372 8.71976 16.5642 8.52861 16.098C7.9054 14.5747 7.5076 12.1144 7.5076 9.34314C7.5076 6.57176 7.9054 4.11171 8.52861 2.58832C8.71976 2.12202 8.92813 1.74909 9.15697 1.4954C9.31636 1.31803 9.47326 1.19959 9.65063 1.19959Z" fill="#221E1F"/>
<path fill-rule="evenodd" clip-rule="evenodd" d="M1.07802 9.77167H18.2222C18.4587 9.77167 18.6508 9.57956 18.6508 9.34306C18.6508 9.10657 18.4587 8.91446 18.2222 8.91446H1.07802C0.841522 8.91446 0.649414 9.10657 0.649414 9.34306C0.649414 9.57956 0.841522 9.77167 1.07802 9.77167Z" fill="#221E1F"/>
</svg>
