<svg width="263" height="158" viewBox="0 0 263 158" fill="none" xmlns="http://www.w3.org/2000/svg">
<path d="M3.53379 76.3052C25.5785 92.802 87.5167 110.886 116.357 77.9357C140.098 50.8115 107.009 27.1701 87.6283 46.2113C64.8141 68.6261 60.583 105.513 106.584 124.117C152.586 142.72 208.963 107.204 231.334 71.4387" stroke="#FDC959" stroke-width="1.4" stroke-dasharray="5.98 5.98"/>
<path d="M226.274 61.148L251.699 39.267C251.724 39.2474 251.75 39.2279 251.777 39.2124C252.038 39.0768 253.311 38.5352 252.812 41.1007C252.259 43.9636 249.661 63.3712 249.661 63.3712C249.661 63.3712 249.324 66.1163 246.683 65.6091C245.314 65.346 243.945 65.083 242.566 64.9146L237.876 64.3494C237.586 64.3153 237.425 63.9883 237.575 63.7392L249.908 43.1243L233.058 63.4344C232.966 63.5415 232.826 63.5965 232.69 63.5783L227.008 62.7881C226.962 62.782 226.924 62.7686 226.884 62.751C226.647 62.6342 225.856 62.1687 226.16 61.3167C226.182 61.251 226.225 61.1912 226.274 61.148Z" fill="#B3A0CF"/>
<path d="M236.812 66.0798L242.36 66.6469C242.642 66.6744 242.807 66.9759 242.683 67.2293L239.814 73.0843C239.66 73.3967 239.208 73.3837 239.072 73.061L236.393 66.6389C236.277 66.3558 236.504 66.048 236.812 66.0798Z" fill="#B3A0CF"/>
</svg>
